<svg width="20" height="22" viewBox="0 0 20 22" fill="none" xmlns="http://www.w3.org/2000/svg">
<path d="M16.5333 8.85724V8.20008C16.5333 4.59182 13.6082 1.66675 9.99995 1.66675C6.39169 1.66675 3.46662 4.59182 3.46662 8.20008V8.85724C3.46662 9.6459 3.23318 10.4169 2.79571 11.0731L1.72368 12.6812C0.744486 14.1499 1.49202 16.1464 3.19508 16.6109C7.6503 17.8259 12.3496 17.8259 16.8048 16.6109C18.5079 16.1464 19.2554 14.15 18.2762 12.6812L17.2042 11.0731C16.7667 10.4169 16.5333 9.6459 16.5333 8.85724Z" stroke="#333333" stroke-width="1.5"/>
<path d="M5.79993 17.5333C6.41129 19.1645 8.06089 20.3333 9.99993 20.3333C11.939 20.3333 13.5886 19.1645 14.1999 17.5333" stroke="#333333" stroke-width="1.5" stroke-linecap="round"/>
<circle cx="16" cy="4" r="4" fill="#EE0033"/>
</svg>
